HIERARCHY
ROOT Hips
{
	OFFSET -148.214600 91.510246 -151.741394
	CHANNELS 6 Xposition Yposition Zposition Zrotation Yrotation Xrotation 
	JOINT LeftUpLeg
	{
		OFFSET 0.103461 1.857822 10.548510
		CHANNELS 3 Zrotation Yrotation Xrotation
		JOINT LeftLeg
		{
			OFFSET 43.500000 -0.000019 0.000002
			CHANNELS 3 Zrotation Yrotation Xrotation
			JOINT LeftFoot
			{
				OFFSET 42.372192 0.000011 -0.000003
				CHANNELS 3 Zrotation Yrotation Xrotation
				JOINT LeftToe
				{
					OFFSET 17.299999 -0.000000 0.000010
					CHANNELS 3 Zrotation Yrotation Xrotation
					End Site
					{
						OFFSET 0.000000 0.000000 0.000000
					}
				}
			}
		}
	}
	JOINT RightUpLeg
	{
		OFFSET 0.103455 1.857820 -10.548494
		CHANNELS 3 Zrotation Yrotation Xrotation
		JOINT RightLeg
		{
			OFFSET 43.500046 -0.000011 0.000019
			CHANNELS 3 Zrotation Yrotation Xrotation
			JOINT RightFoot
			{
				OFFSET 42.372261 -0.000008 0.000011
				CHANNELS 3 Zrotation Yrotation Xrotation
				JOINT RightToe
				{
					OFFSET 17.299988 -0.000007 0.000010
					CHANNELS 3 Zrotation Yrotation Xrotation
					End Site
					{
						OFFSET 0.000000 0.000000 0.000000
					}
				}
			}
		}
	}
	JOINT Spine
	{
		OFFSET 6.901968 -2.603730 0.000000
		CHANNELS 3 Zrotation Yrotation Xrotation
		JOINT Spine1
		{
			OFFSET 12.588100 -0.000004 0.000000
			CHANNELS 3 Zrotation Yrotation Xrotation
			JOINT Spine2
			{
				OFFSET 12.343204 0.000010 -0.000008
				CHANNELS 3 Zrotation Yrotation Xrotation
				JOINT Neck
				{
					OFFSET 25.832897 0.000000 -0.000001
					CHANNELS 3 Zrotation Yrotation Xrotation
					JOINT Head
					{
						OFFSET 11.766605 0.000003 0.000004
						CHANNELS 3 Zrotation Yrotation Xrotation
						End Site
						{
							OFFSET 0.000000 0.000000 0.000000
						}
					}
				}
				JOINT LeftShoulder
				{
					OFFSET 19.745903 -1.480373 6.000118
					CHANNELS 3 Zrotation Yrotation Xrotation
					JOINT LeftArm
					{
						OFFSET 11.284121 -0.000002 -0.000023
						CHANNELS 3 Zrotation Yrotation Xrotation
						JOINT LeftForeArm
						{
							OFFSET 33.000046 -0.000008 0.000023
							CHANNELS 3 Zrotation Yrotation Xrotation
							JOINT LeftHand
							{
								OFFSET 25.200012 0.000016 0.000008
								CHANNELS 3 Zrotation Yrotation Xrotation
								End Site
								{
									OFFSET 0.000000 0.000000 0.000000
								}
							}
						}
					}
				}
				JOINT RightShoulder
				{
					OFFSET 19.746101 -1.480373 -6.000067
					CHANNELS 3 Zrotation Yrotation Xrotation
					JOINT RightArm
					{
						OFFSET 11.284146 -0.000018 -0.000007
						CHANNELS 3 Zrotation Yrotation Xrotation
						JOINT RightForeArm
						{
							OFFSET 33.000080 0.000028 0.000017
							CHANNELS 3 Zrotation Yrotation Xrotation
							JOINT RightHand
							{
								OFFSET 25.199787 0.000143 0.000415
								CHANNELS 3 Zrotation Yrotation Xrotation
								End Site
								{
									OFFSET 0.000000 0.000000 0.000000
								}
							}
						}
					}
				}
			}
		}
	}
}
MOTION
Frames: 11
Frame Time: 0.033333
-149.017197 90.089920 14.935960 94.649135 4.835645 162.912006 177.763036 -22.168111 164.338682 -21.251305 -1.344778 1.805348 77.516445 -4.900188 -13.456320 21.454555 0.003092 -0.000000 172.423058 8.267195 -171.775952 -31.103920 4.774703 9.261778 80.541427 -3.716798 12.814644 21.454562 -0.003102 -0.000016 9.342853 -0.127813 -0.400661 8.673694 -0.225310 -0.809759 8.355622 -0.230060 -0.808381 -16.147278 -5.605153 -12.234167 -5.695654 10.146893 -16.616341 169.392967 -72.595731 9.572012 -22.337080 56.887891 1.133117 -67.561766 -16.643738 2.506394 4.349362 -19.691736 16.645342 143.081726 72.759089 -36.510503 -4.216130 -60.098438 24.216651 -103.168300 -1.390732 -2.839255 -5.868032 24.779114 -24.841260 
-149.728897 89.775391 15.004890 94.036986 3.938532 160.975797 177.274377 -21.299390 161.483950 -23.038059 -0.332512 1.787114 78.876097 -4.803844 -13.739288 21.454553 0.003092 0.000000 171.500886 8.076201 -173.718253 -29.865224 4.560575 9.483707 83.001299 -4.164975 12.560382 21.454558 -0.003103 -0.000017 9.179790 -0.406571 -0.180322 8.348302 -0.799129 -0.389477 8.030162 -0.801326 -0.384638 -16.521826 -5.884370 -13.684633 -5.340539 10.635424 -18.198778 170.467055 -72.548692 8.469963 -19.978237 57.525650 2.018822 -69.217759 -15.550287 2.497832 4.193080 -16.948824 17.938037 142.016394 73.664512 -37.526446 -10.607923 -56.974306 29.802369 -101.890296 -1.107352 -2.802033 -5.271042 23.501499 -26.435405 
-150.181595 89.180161 15.337950 94.131502 4.602938 159.482103 178.030452 -22.168400 161.651644 -24.129083 -0.327651 1.497518 81.288151 -4.510940 -14.676888 21.454553 0.003092 -0.000000 171.929904 6.434494 -176.243510 -28.785354 4.544070 10.337600 85.262816 -5.081513 12.022674 21.454558 -0.003103 -0.000015 9.186041 -0.297443 -0.075395 8.359786 -0.588715 -0.172060 8.041665 -0.589605 -0.168495 -14.934410 -6.352052 -14.673140 -6.104191 10.987961 -19.490433 170.576994 -72.968789 8.342057 -17.813408 57.854134 5.126760 -69.868095 -15.516701 2.522238 6.532632 -14.247939 17.218543 144.056312 73.387227 -35.470883 -15.350200 -52.690774 33.072070 -100.807513 -0.981868 -2.762420 -3.844892 21.757368 -26.324937 
-150.413895 88.844872 15.638980 94.776197 5.726191 158.037204 179.999704 -23.223099 162.355181 -23.705082 -1.245248 0.191022 82.300392 -3.630815 -15.649690 21.454553 0.003092 0.000000 172.107353 5.499802 -176.948249 -29.734607 4.862275 9.832929 85.570304 -4.976663 10.881031 21.454558 -0.003105 -0.000018 9.360230 -0.079223 -0.013283 8.707639 -0.157277 -0.032496 8.389548 -0.157334 -0.031536 -13.828060 -4.946354 -15.922844 -7.112311 9.651496 -19.894915 169.844962 -72.847096 9.098020 -16.581360 57.263599 8.377648 -68.488991 -15.647434 2.474776 7.245706 -13.958842 15.932741 146.810613 73.241382 -32.674672 -18.609520 -50.672443 34.576077 -100.582404 -0.846785 -2.761775 -2.261018 19.612690 -25.967718 
-150.602600 88.849419 15.810450 94.496104 5.877736 156.689894 -179.659261 -23.739393 160.389398 -23.843065 -1.073910 0.484443 81.829013 -3.986223 -15.948712 21.454553 0.003092 0.000000 171.369282 5.348805 -175.611185 -30.331569 4.392740 8.343541 85.356751 -4.035280 10.168430 21.454555 -0.003109 -0.000017 9.240746 0.128827 -0.187885 8.468223 0.270995 -0.365841 8.150112 0.268916 -0.367470 -13.164517 -5.878759 -15.888326 -7.275726 11.039217 -20.611358 171.791019 -70.557193 7.180050 -15.643778 54.705659 14.790471 -63.955392 -17.385400 2.413610 7.445646 -15.652782 15.017902 147.281596 71.885323 -32.290238 -18.481170 -51.047434 33.379063 -100.470402 -0.532014 -2.778704 -4.599251 20.141687 -27.044815 
-150.546707 89.293388 15.790590 94.573135 5.245790 155.626502 -178.998836 -23.074602 157.836068 -23.106726 -0.701565 1.194455 79.647034 -4.780011 -15.756502 21.454551 0.003092 -0.000000 171.596263 5.705599 -176.830196 -29.064251 4.385962 8.514545 84.494371 -4.048549 10.395498 21.454557 -0.003101 -0.000017 9.094583 0.079816 -0.486761 8.175502 0.193724 -0.966668 7.857447 0.188021 -0.967812 -12.631486 -4.346559 -16.378515 -7.548817 9.113492 -20.007552 170.786012 -71.549305 8.178957 -14.913267 56.124112 19.360740 -57.838616 -19.281617 2.310478 8.575160 -14.801614 15.733851 149.341622 70.607955 -30.272583 -16.458396 -54.111443 30.229041 -100.962593 -0.711397 -2.788198 -6.044620 20.823970 -27.523241 
-150.248306 89.754860 15.330670 94.762673 4.576170 154.104709 -178.144775 -21.779498 157.592832 -22.515334 -0.541002 1.141793 78.191719 -4.972881 -15.832259 21.454553 0.003092 0.000000 172.010664 6.641492 -178.520367 -27.390387 4.812878 8.611157 83.457337 -3.988067 10.659879 21.454558 -0.003104 -0.000016 8.932562 0.072689 -0.787235 7.850934 0.198470 -1.567714 7.532973 0.189135 -1.568880 -12.103917 -3.208332 -16.294600 -7.416438 8.151548 -19.223815 169.258044 -72.838114 9.701056 -12.117330 58.795354 22.435811 -53.740932 -19.730745 2.193478 9.640843 -12.613650 15.462097 153.315125 69.632365 -26.263298 -13.275867 -57.825099 24.628675 -101.499405 -0.723631 -2.811311 -7.916505 22.170227 -27.382006 
-150.084595 89.865112 14.805850 94.730161 4.493676 152.145100 -177.950989 -21.487198 158.552186 -24.211938 -0.346320 1.606685 79.315927 -5.439242 -16.956662 21.454551 0.003092 -0.000000 171.710368 6.815901 -179.484831 -26.892002 4.502903 8.130890 83.073897 -3.525688 11.077398 21.454557 -0.003113 -0.000018 8.875624 0.352170 -1.172695 7.730682 0.781685 -2.319305 7.412837 0.767802 -2.323973 -12.971653 -2.962077 -15.461665 -7.140228 6.675056 -17.890941 170.144028 -73.082505 8.781979 -8.316062 60.663432 25.042192 -52.050823 -19.443108 2.115629 12.474615 -10.297344 13.635477 155.426255 68.756700 -24.148190 -9.142814 -59.911708 17.358456 -102.391509 -0.725544 -2.850952 -9.135490 23.965911 -27.028484 
-150.146500 88.971573 13.822150 94.911387 4.624044 148.836297 -178.268224 -21.009288 160.736249 -29.715947 0.843432 3.184473 83.914058 -5.994985 -17.408913 21.454557 0.003092 0.000000 168.554179 6.972003 177.555562 -31.327578 4.558577 7.512978 84.699905 -3.076662 11.815044 21.454563 -0.003094 -0.000017 9.034871 0.690903 -1.395584 8.039871 1.476888 -2.740032 7.722068 1.460456 -2.748892 -14.652989 -3.826087 -14.039838 -7.033337 5.610821 -16.555924 171.765024 -73.175204 7.114983 -4.947398 62.048819 28.544170 -51.381915 -19.248264 2.079859 13.751035 -9.785736 9.822230 155.738244 68.870273 -23.820481 -6.162387 -60.438104 10.587083 -103.522910 -0.749383 -2.899636 -8.874426 25.177098 -24.843671 
-150.114395 87.157143 12.790810 95.861104 5.355835 145.073300 -177.507437 -19.978701 162.588200 -36.281511 2.517753 4.579675 89.631445 -5.942283 -16.379644 21.454545 0.003091 -0.000001 164.756621 7.268004 177.455309 -38.690443 3.554687 4.847740 87.321865 -1.481916 11.304985 21.454557 -0.003108 -0.000017 9.534399 0.952970 -1.600136 9.029747 2.027735 -3.121474 8.711934 2.008997 -3.133641 -16.289929 -3.549997 -12.902641 -8.005039 3.769245 -14.919879 171.173925 -74.678891 7.668954 -1.244277 63.608425 32.716336 -52.228189 -18.896745 2.084845 13.153901 -9.483637 7.632187 155.957821 67.350890 -23.686521 -4.114726 -58.251507 5.835201 -105.441715 -0.937725 -2.971592 -9.105019 25.328874 -23.807601 
-149.970993 85.769447 12.307160 97.155910 6.549641 141.983008 -174.221446 -19.079606 164.146043 -37.060067 1.849403 3.396878 93.964388 -4.520527 -17.202310 21.454555 0.003095 0.000001 163.173424 6.893100 177.667523 -43.392810 1.973971 2.872904 88.817656 -0.316035 10.572668 21.454555 -0.003112 -0.000019 10.139184 1.185153 -1.914460 10.226830 2.534802 -3.717423 9.909133 2.512460 -3.732633 -17.451378 -3.662682 -11.757811 -9.155479 3.008144 -13.722373 169.349964 -75.779713 9.494032 2.490830 63.731976 37.259519 -54.253832 -18.438092 2.123864 12.545472 -8.835254 9.082413 155.962274 66.142883 -23.755495 -3.941791 -56.589108 4.863441 -108.362713 -1.478172 -3.062617 -9.542679 24.695029 -22.641901 
